<svg xmlns="http://www.w3.org/2000/svg" width="960" height="540" viewBox="0 0 960 540">
  <rect width="960" height="540" fill="#F4F6F9" />
  <rect x="90" y="108" width="780" height="342" rx="16" fill="#FFFFFF" />
  <path d="M 90 124 A 16 16 0 0 1 106 108 L 854 108 A 16 16 0 0 1 870 124 L 870 142 L 90 142 Z" fill="#E5E7EB" />
  <circle cx="114" cy="125" r="6" fill="#D1D5DB" />
  <circle cx="136" cy="125" r="6" fill="#D1D5DB" />
  <circle cx="158" cy="125" r="6" fill="#D1D5DB" />
  <text x="480" y="129" font-family="system-ui, -apple-system, 'Segoe UI', Roboto, sans-serif" font-size="13" font-weight="600" fill="#1A1A1A" text-anchor="middle">iMovie</text>
  
  
  <rect x="0" y="0" width="960" height="24" fill="#FFFFFF" />
  <line x1="0" y1="24" x2="960" y2="24" stroke="#D1D5DB" stroke-width="1" />
  <path d="M 26.4 8.8 c 1.2 -1.4 2 -3.3 1.8 -5.2 -1.7 0.1 -3.7 1.2 -4.9 2.6 -1.1 1.3 -2 3.2 -1.7 5 1.8 0.2 3.6 -1 4.8 -2.4 Z" fill="#1A1A1A" />
  <path d="M 26.88 10.719999999999999 c -2.6 -1.6 -3 -4.6 -0.7 -6.3 -0.7 -1.1 -2 -1.8 -3.4 -1.9 -1.4 -0.1 -3 0.8 -3.8 0.8 -0.8 0 -2.1 -0.8 -3.5 -0.8 -1.8 0 -3.5 1.1 -4.4 2.7 -1.9 3.3 -0.5 8.1 1.3 10.8 0.9 1.3 2 2.8 3.4 2.7 1.3 -0.1 1.9 -0.9 3.5 -0.9 1.7 0 2.2 0.9 3.6 0.8 1.5 -0.1 2.4 -1.3 3.3 -2.6 1 -1.5 1.5 -3 1.5 -3 -0.1 0 -2.8 -1.1 -2.8 -4.3 Z" fill="#1A1A1A" />
  <text x="42" y="16" font-family="system-ui, -apple-system, 'Segoe UI', Roboto, sans-serif" font-size="12.5" font-weight="700" fill="#1A1A1A" text-anchor="start">iMovie</text>
  <text x="112.9525" y="16" font-family="system-ui, -apple-system, 'Segoe UI', Roboto, sans-serif" font-size="12.5" font-weight="400" fill="#1A1A1A" text-anchor="start">File</text>
  <text x="157.49" y="16" font-family="system-ui, -apple-system, 'Segoe UI', Roboto, sans-serif" font-size="12.5" font-weight="400" fill="#1A1A1A" text-anchor="start">Edit</text>
  <text x="202.02750000000003" y="16" font-family="system-ui, -apple-system, 'Segoe UI', Roboto, sans-serif" font-size="12.5" font-weight="400" fill="#1A1A1A" text-anchor="start">Clip</text>
  <text x="246.56500000000005" y="16" font-family="system-ui, -apple-system, 'Segoe UI', Roboto, sans-serif" font-size="12.5" font-weight="400" fill="#1A1A1A" text-anchor="start">Modify</text>
  <text x="308.70250000000004" y="16" font-family="system-ui, -apple-system, 'Segoe UI', Roboto, sans-serif" font-size="12.5" font-weight="400" fill="#1A1A1A" text-anchor="start">View</text>
  <text x="361.07750000000004" y="16" font-family="system-ui, -apple-system, 'Segoe UI', Roboto, sans-serif" font-size="12.5" font-weight="400" fill="#1A1A1A" text-anchor="start">Window</text>
  <text x="431.0525" y="16" font-family="system-ui, -apple-system, 'Segoe UI', Roboto, sans-serif" font-size="12.5" font-weight="400" fill="#1A1A1A" text-anchor="start">Help</text>
  <text x="944" y="16" font-family="system-ui, -apple-system, 'Segoe UI', Roboto, sans-serif" font-size="12" font-weight="400" fill="#6B7280" text-anchor="end">9:41</text>
  <rect x="350" y="215" width="96" height="38" rx="7" fill="#1A1A1A" />
  <text x="398" y="239" font-family="system-ui, -apple-system, 'Segoe UI', Roboto, sans-serif" font-size="14" font-weight="700" fill="#FFFFFF" text-anchor="middle">Movie</text>
  <rect x="480" y="215" width="101.514" height="38" rx="7" fill="#FFFFFF" stroke="#1A1A1A" stroke-width="1.5" />
  <text x="530.757" y="239" font-family="system-ui, -apple-system, 'Segoe UI', Roboto, sans-serif" font-size="14" font-weight="700" fill="#1A1A1A" text-anchor="middle">Trailer</text>
  <text x="480" y="195" font-family="system-ui, -apple-system, 'Segoe UI', Roboto, sans-serif" font-size="14" font-weight="700" fill="#1A1A1A" text-anchor="middle">Create New</text>
  <line x1="480" y1="386" x2="398" y2="253" stroke="#C0293F" stroke-width="2" stroke-dasharray="4,3" />
  <circle cx="398" cy="253" r="4" fill="#C0293F" />
  <rect x="305.3984" y="386" width="349.20320000000004" height="29.650000000000002" rx="6" fill="#FFFFFF" stroke="#C0293F" stroke-width="2" />
  <text x="480" y="404.92" font-family="system-ui, -apple-system, 'Segoe UI', Roboto, sans-serif" font-size="14" font-weight="700" fill="#C0293F" text-anchor="middle">Creating a new Movie project in iMovie</text>
  <text x="480" y="494" font-family="system-ui, -apple-system, 'Segoe UI', Roboto, sans-serif" font-size="20" font-weight="400" fill="#6B7280" text-anchor="middle">macOS</text>
</svg>